<svg width="21" height="20" fill="none" xmlns="http://www.w3.org/2000/svg"><g clip-path="url(#clip0_821_13915)"><path d="M17.053 18.75H7.092a2.2 2.2 0 01-2.197-2.197V6.592a2.2 2.2 0 012.197-2.197h9.96a2.2 2.2 0 012.198 2.197v9.96a2.2 2.2 0 01-2.197 2.198zM7.092 5.86a.733.733 0 00-.733.732v9.96c0 .405.329.733.733.733h9.96a.733.733 0 00.733-.732V6.592a.733.733 0 00-.732-.733H7.092zM3.43 12.89h-.733a.733.733 0 01-.732-.732v-9.96c0-.405.328-.733.732-.733h9.961c.404 0 .733.328.733.732v.696h1.464v-.696A2.2 2.2 0 0012.659 0h-9.96A2.2 2.2 0 00.5 2.197v9.961a2.2 2.2 0 002.197 2.197h.733v-1.464z" fill="#fff"/></g><defs><clipPath id="clip0_821_13915"><path fill="#fff" transform="translate(.5)" d="M0 0h20v20H0z"/></clipPath></defs></svg>