<svg width="20" height="20" fill="none" xmlns="http://www.w3.org/2000/svg"><path d="M19.873 9.61c-.179-.245-4.436-5.985-9.873-5.985-5.437 0-9.695 5.74-9.873 5.984a.66.66 0 000 .779c.178.244 4.436 5.984 9.873 5.984 5.437 0 9.694-5.74 9.873-5.984a.659.659 0 000-.778zM10 15.054c-4.005 0-7.474-3.81-8.5-5.056C2.524 8.752 5.985 4.944 10 4.944c4.005 0 7.473 3.809 8.5 5.055-1.025 1.247-4.486 5.055-8.5 5.055z" fill="#55618D"/><path d="M9.999 6.043a3.96 3.96 0 00-3.956 3.956 3.96 3.96 0 003.956 3.956A3.96 3.96 0 0013.955 10 3.96 3.96 0 0010 6.043zm0 6.593A2.64 2.64 0 017.362 10a2.64 2.64 0 012.637-2.637A2.64 2.64 0 0112.636 10 2.64 2.64 0 0110 12.636z" fill="#55618D"/></svg>