<svg width="20" height="20" fill="none" xmlns="http://www.w3.org/2000/svg"><g clip-path="url(#clip0_769_13982)"><path d="M12.483 10.168l1.136-1.135c.082.309.131.632.131.967A3.754 3.754 0 0110 13.75c-.335 0-.658-.048-.968-.131l1.136-1.136a2.489 2.489 0 002.315-2.315zm7.438-.472c-.077-.138-1.167-2.048-3.298-3.667l-.91.91A12.51 12.51 0 0118.64 10c-.741 1.129-3.647 5-8.64 5a9.179 9.179 0 01-2.1-.249l-1.027 1.027c.944.29 1.982.472 3.127.472 6.543 0 9.786-5.704 9.921-5.946a.624.624 0 000-.608zm-2.604-6.13l-13.75 13.75a.623.623 0 01-1.067-.441.624.624 0 01.183-.442l1.75-1.75c-2.829-1.707-4.266-4.22-4.354-4.38a.625.625 0 010-.607C.214 9.454 3.457 3.75 10 3.75c1.692 0 3.157.386 4.41.957l2.023-2.024a.625.625 0 11.884.884zM5.365 13.753l1.582-1.583A3.725 3.725 0 016.25 10 3.754 3.754 0 0110 6.25c.809 0 1.556.26 2.17.697l1.279-1.28A9.203 9.203 0 0010 5c-4.993 0-7.899 3.871-8.64 5 .47.712 1.823 2.516 4.005 3.752zm2.49-2.49l3.407-3.408c-.372-.22-.8-.354-1.262-.354A2.503 2.503 0 007.5 10c0 .462.135.89.354 1.262z" fill="#55618D"/></g><defs><clipPath id="clip0_769_13982"><path fill="#fff" d="M0 0h20v20H0z"/></clipPath></defs></svg>