<svg width="240" height="35" fill="none" xmlns="http://www.w3.org/2000/svg"><path d="M67.373 7.325l-8.358 19.19c-.13.294-.323.53-.584.71a1.426 1.426 0 01-.852.275 1.41 1.41 0 01-.845-.275 1.754 1.754 0 01-.596-.71l-8.345-19.19h3.582l6.204 14.33 6.224-14.33h3.57zm5.031 19.896h-3.2V7.325h3.2v19.896zm21.323-11.57c0 .82-.092 1.558-.273 2.202a6.55 6.55 0 01-.73 1.714 5.557 5.557 0 01-1.063 1.27 6.028 6.028 0 01-1.264.862 5.624 5.624 0 01-1.328.482 5.54 5.54 0 01-1.26.157h-7.236v-3.609h7.236a3.431 3.431 0 001.113-.284c.332-.152.618-.36.857-.616.235-.26.42-.573.55-.938.135-.364.198-.78.198-1.24v-1.639a5.351 5.351 0 00-.257-1.25 3.07 3.07 0 00-.537-.971 2.378 2.378 0 00-.819-.63 2.552 2.552 0 00-1.105-.232H80.6c-.43 0-.753.128-.975.379-.218.246-.332.61-.332 1.08V27.22h-3.196V12.388c0-.924.147-1.71.45-2.359.297-.649.671-1.17 1.116-1.567a4.29 4.29 0 011.458-.867c.525-.18 1.012-.27 1.453-.27h7.236c.723 0 1.37.104 1.945.313.571.208 1.08.483 1.516.833.441.346.815.744 1.121 1.198.307.455.563.928.765 1.421a7.6 7.6 0 01.437 1.501c.088.502.134.976.134 1.421v1.639zm25.212 3.438h-10.105v-3.632h10.105v3.632zm1.436 8.132h-11.541c-.441 0-.924-.09-1.449-.266a4.148 4.148 0 01-1.461-.866c-.446-.403-.819-.924-1.118-1.568-.302-.644-.449-1.43-.449-2.363V9.144c0-.251.042-.488.122-.71a1.83 1.83 0 01.34-.583c.143-.166.311-.294.508-.389.198-.09.412-.137.643-.137h14.405v3.604h-12.818v11.229c0 .469.109.829.332 1.08.218.25.546.374.97.374h11.516v3.609zm11.147-12.792l5.392-7.104h4.368l-7.593 9.974 7.543 9.922h-4.343l-5.367-7.047-5.338 7.047h-4.356l7.531-9.922-7.556-9.974h4.33l5.389 7.104zm29.361 1.222c0 .82-.092 1.558-.273 2.202a6.523 6.523 0 01-.731 1.714 5.54 5.54 0 01-1.062 1.27 6.002 6.002 0 01-1.264.862 5.62 5.62 0 01-1.328.482 5.536 5.536 0 01-1.26.157h-7.236v-3.609h7.236a3.423 3.423 0 001.113-.284 2.7 2.7 0 00.857-.616c.235-.26.42-.573.55-.938a3.57 3.57 0 00.198-1.24v-1.639a5.367 5.367 0 00-.256-1.25 3.103 3.103 0 00-.538-.971 2.375 2.375 0 00-.819-.63 2.552 2.552 0 00-1.105-.232h-7.211c-.428 0-.751.128-.974.379-.218.246-.332.61-.332 1.08V27.22h-3.196V12.388c0-.924.147-1.71.449-2.359.299-.649.672-1.17 1.118-1.567a4.276 4.276 0 011.457-.867c.525-.18 1.012-.27 1.453-.27h7.236c.723 0 1.37.104 1.945.313a5.308 5.308 0 011.516.833c.441.346.815.744 1.122 1.198.306.455.562.928.764 1.421.202.497.344.995.437 1.501.088.502.134.976.134 1.421v1.639zm20.365-1.639c0 .824-.092 1.558-.273 2.207a6.698 6.698 0 01-.73 1.714 5.693 5.693 0 01-1.067 1.27c-.399.35-.819.64-1.26.866a5.67 5.67 0 01-2.591.645l6.682 6.507h-4.944l-6.669-6.508h-2.302v-3.608h7.233a3.406 3.406 0 001.104-.285 2.76 2.76 0 00.861-.615c.24-.26.429-.573.559-.938a3.72 3.72 0 00.197-1.255v-2.278c0-.204-.021-.355-.067-.464a.554.554 0 00-.172-.232.47.47 0 00-.223-.095 1.812 1.812 0 00-.214-.014h-10.559V27.22h-3.2V9.144c0-.251.042-.488.126-.71.08-.223.193-.418.336-.583.143-.166.315-.294.512-.389a1.53 1.53 0 01.639-.137h12.146c.714 0 1.314.147 1.806.436.496.293.895.658 1.201 1.098.307.436.529.91.664 1.421.138.507.205.985.205 1.43v2.302zm17.72 5.077h-10.105v-3.632h10.105v3.632zm1.436 8.132h-11.541c-.441 0-.924-.09-1.449-.266a4.16 4.16 0 01-1.462-.866c-.445-.403-.819-.924-1.117-1.568-.302-.644-.449-1.43-.449-2.363V9.144c0-.251.042-.488.122-.71a1.83 1.83 0 01.34-.583c.143-.166.311-.294.508-.389.197-.09.412-.137.643-.137h14.405v3.604h-12.818v11.229c0 .469.109.829.332 1.08.218.25.546.374.97.374h11.516v3.609zm19.983-5.854c0 .71-.08 1.35-.239 1.918-.16.573-.37 1.07-.63 1.506a4.697 4.697 0 01-.924 1.113 5.66 5.66 0 01-1.096.748c-.378.194-.76.337-1.151.431a4.92 4.92 0 01-1.1.138h-12.344v-3.61h12.344c.613 0 1.092-.203 1.432-.61.34-.407.512-.952.512-1.634 0-.336-.046-.64-.134-.919a2.26 2.26 0 00-.391-.72 1.767 1.767 0 00-.613-.473 1.953 1.953 0 00-.806-.166h-7.359c-.516 0-1.075-.104-1.671-.313a4.825 4.825 0 01-1.668-1.004c-.516-.464-.94-1.07-1.281-1.818-.34-.748-.512-1.663-.512-2.747 0-1.085.172-1.994.512-2.742.341-.744.765-1.35 1.281-1.814a4.78 4.78 0 011.668-1.013c.596-.209 1.155-.313 1.671-.313h10.891v3.604h-10.891c-.609 0-1.079.208-1.419.625-.34.417-.513.966-.513 1.653 0 .691.173 1.24.513 1.643s.81.607 1.419.607h7.384c.344.01.71.061 1.092.156.386.1.773.25 1.151.45.382.203.747.464 1.092.772.344.312.65.682.915 1.117.265.436.479.933.634 1.497.156.563.231 1.203.231 1.918zm19.614 0c0 .71-.08 1.35-.24 1.918a6.059 6.059 0 01-.63 1.506 4.674 4.674 0 01-.924 1.113 5.63 5.63 0 01-1.096.748c-.378.194-.76.337-1.151.431a4.91 4.91 0 01-1.1.138h-12.343v-3.61h12.343c.613 0 1.092-.203 1.432-.61.34-.407.513-.952.513-1.634 0-.336-.047-.64-.135-.919a2.239 2.239 0 00-.39-.72 1.762 1.762 0 00-.614-.473 1.95 1.95 0 00-.806-.166h-7.358c-.517 0-1.075-.104-1.672-.313a4.82 4.82 0 01-1.667-1.004c-.517-.464-.941-1.07-1.281-1.818-.34-.748-.512-1.663-.512-2.747 0-1.085.172-1.994.512-2.742.34-.744.764-1.35 1.281-1.814a4.775 4.775 0 011.667-1.013c.597-.209 1.155-.313 1.672-.313h10.89v3.604h-10.89c-.609 0-1.08.208-1.42.625-.34.417-.512.966-.512 1.653 0 .691.172 1.24.512 1.643s.811.607 1.42.607h7.383c.345.01.71.061 1.092.156a5.317 5.317 0 012.243 1.222c.344.312.651.682.915 1.117.265.436.479.933.635 1.497.155.563.231 1.203.231 1.918zM41.46.5l-6.42 11.931c-.172-.77-.403-1.337-.76-1.912-.495-.8-1.232-1.611-2.68-1.52-.655.041-1.454.266-2.39.483L34.027.5h7.432zM30.972 19.994l-6.91 12.846a3.034 3.034 0 01-1.216 1.197 3.461 3.461 0 01-1.775.463 3.42 3.42 0 01-1.758-.463 3.217 3.217 0 01-1.241-1.197l-6.939-12.917c.15.067.304.133.463.198 1.182.487 2.583.92 3.83 1.073 1.246.153 2.339.024 3.155-.1.195-.029.375-.058.542-.087l1.948 3.644 1.896-3.534c.522.136 1.107.273 1.7.347 1.117.141 2.26.059 3.514-.316.956-.287 1.975-.743 2.791-1.154zM6.908 12.058L.7.5h7.458l4.764 8.91c-.68.145-1.448.112-2.28.457-1.075.446-2.258 1.526-3.295 2.016-.149.07-.295.128-.438.175z" fill="#111"/><mask id="a" style="mask-type:luminance" maskUnits="userSpaceOnUse" x="0" y="0" width="42" height="35"><path d="M41.46.5l-6.42 11.931c-.172-.77-.403-1.337-.76-1.912-.495-.8-1.232-1.611-2.68-1.52-.655.041-1.454.266-2.39.483L34.027.5h7.432zM30.972 19.994l-6.91 12.846a3.034 3.034 0 01-1.216 1.197 3.461 3.461 0 01-1.775.463 3.42 3.42 0 01-1.758-.463 3.217 3.217 0 01-1.241-1.197l-6.939-12.917c.15.067.304.133.463.198 1.182.487 2.583.92 3.83 1.073 1.246.153 2.339.024 3.155-.1.195-.029.375-.058.542-.087l1.948 3.644 1.896-3.534c.522.136 1.107.273 1.7.347 1.117.141 2.26.059 3.514-.316.956-.287 1.975-.743 2.791-1.154zM6.908 12.058L.7.5h7.458l4.764 8.91c-.68.145-1.448.112-2.28.457-1.075.446-2.258 1.526-3.295 2.016-.149.07-.295.128-.438.175z" fill="#fff"/></mask><g mask="url(#a)"><path fill-rule="evenodd" clip-rule="evenodd" d="M-5.47-4.06h54.86v16.468H-5.47V-4.061z" fill="#111" stroke="#111" stroke-width=".853" stroke-miterlimit="22.926"/></g><path fill-rule="evenodd" clip-rule="evenodd" d="M39.048 13.456c-1.507.437-2.857 1.248-4.15 2.128-2.857 1.921-5.5 4.279-9.33 4.272h-.144c.015-.042.285-.347.334-.406a30.795 30.795 0 014.617-4.567c.072-.053.148-.11.213-.168 2.47-1.96 5.435-2.308 8.46-1.26zm-14.345 5.852l-.416.495a7.484 7.484 0 01-2.435-.685c2.2-1.611 3.397-4.074 3.266-6.647 1.63-.982 3.439-1.697 5.084-2.66 0 .02.005.047.005.068a11.35 11.35 0 01-.548 4.451 30.154 30.154 0 00-2.619 2.365 34.458 34.458 0 00-2.337 2.613zm-3.676-.695c-1.938-1.28-3.097-3.356-3.162-5.536l.046-1.033c.011-.084.017-.168.035-.253v-.02c.308-2.881 1.79-5.458 3.081-8.05 1.285 2.588 2.774 5.175 3.076 8.05.021.076.029.191.04.273l.046 1.033c-.073 2.17-1.23 4.26-3.162 5.536zm-3.266 1.19c-.127-.158-.266-.321-.41-.495a33.362 33.362 0 00-2.343-2.613c-.23-.247-.482-.476-.72-.716a36.794 36.794 0 00-1.894-1.649 11.17 11.17 0 01-.548-4.435c0-.026.006-.058.006-.084 1.64.967 3.454 1.679 5.084 2.66-.144 2.543 1.077 5.064 3.266 6.647a7.477 7.477 0 01-2.441.685zm-1.281.053c-2.874.005-5.118-1.344-7.236-2.813C7.316 15.705 5.32 14.127 3 13.456c3.021-1.048 5.991-.699 8.459 1.259.072.05.141.114.213.168a31.153 31.153 0 014.616 4.556c.11.133.214.264.318.385l.023.032h-.15zM32.229 5.52l-1.294 2.783-.63.406c-1.65 1.088-3.56 1.829-5.29 2.807-.434-3.569-2.522-6.657-3.988-9.918-1.466 3.259-3.554 6.353-3.987 9.918-1.735-.98-3.635-1.715-5.292-2.807l-.634-.406v.01L9.605 5.076c-.156.033-.342.075-.567.126-1.279.292-1.07.104-1.626.611L4.058 5.9l2.855 6.139c-2.262-.148-4.288.548-5.592 1.164L0 13.824l1.471.18c2.455.308 4.435 1.769 6.336 3.107 2.614 1.86 5.146 3.598 8.65 3.598.139 0 .278-.01.415-.01.156 0 .306 0 .468-.006l1.108-.121a8.34 8.34 0 002.579-.895c.79.431 1.661.737 2.58.895l1.107.121c.161.006.323.006.485.006 4.431.155 7.224-2.378 10.473-4.583 1.546-1.038 3.104-1.886 4.91-2.112l1.466-.18-1.316-.621c-1.31-.616-3.34-1.317-5.608-1.164l2.893-6.227h-2.855c-1.556 0-1.891-.174-2.678-.174l-.255-.117z" fill="#111"/></svg>