<svg width="120" height="120" fill="none" xmlns="http://www.w3.org/2000/svg"><g clip-path="url(#clip0_831_12249)"><path d="M116.372 30.434c-3.15-11.595-15.209-23.656-26.806-26.806C82.456 1.856 72.93.03 60 0 47.07.03 37.544 1.856 30.434 3.628 18.839 6.778 6.778 18.837 3.628 30.434 1.856 37.544.03 47.069 0 60c.03 12.93 1.856 22.456 3.628 29.566 3.15 11.597 15.211 23.656 26.806 26.806 7.11 1.772 16.64 3.598 29.566 3.628 12.928-.03 22.456-1.856 29.566-3.628 11.597-3.15 23.656-15.209 26.806-26.806 1.772-7.11 3.598-16.64 3.628-29.566-.03-12.93-1.856-22.456-3.628-29.566z" fill="#DFECFF"/><path d="M96.396 52.1a6760.126 6760.126 0 01-4.966-4.836 650.162 650.162 0 00-.176-6.74c-.094-3.007-1.392-5.876-3.624-8.107a12.075 12.075 0 00-8.12-3.614 650.14 650.14 0 00-6.755-.176 621.16 621.16 0 01-4.835-4.953 10.816 10.816 0 00-15.837 0 683.66 683.66 0 01-4.845 4.965c-2.25.043-4.5.101-6.75.173-6.199.21-11.533 5.534-11.744 11.719-.07 2.245-.13 4.492-.176 6.74-1.658 1.62-3.313 3.23-4.966 4.83-2.206 2.145-3.446 4.94-3.446 7.902a10.954 10.954 0 003.446 7.903 1471.5 1471.5 0 014.966 4.825c.047 2.25.105 4.5.176 6.748.093 3.012 1.392 5.874 3.62 8.107a12.085 12.085 0 008.124 3.614c2.253.07 4.505.13 6.755.176a676.942 676.942 0 014.835 4.955 10.83 10.83 0 0015.844 0c1.603-1.649 3.216-3.301 4.84-4.957 2.25-.046 4.5-.103 6.75-.174 6.197-.21 11.533-5.538 11.744-11.719.07-2.245.13-4.49.176-6.738a3486.58 3486.58 0 014.966-4.84 10.97 10.97 0 003.446-7.9c0-2.968-1.24-5.761-3.448-7.904z" fill="url(#paint0_linear_831_12249)"/><g clip-path="url(#clip1_831_12249)"><path d="M80.385 45.193a2.1 2.1 0 00-2.97 0l-25.16 25.16-9.67-9.671a2.1 2.1 0 00-2.97 2.97l11.156 11.155a2.1 2.1 0 002.97 0l26.644-26.644a2.1 2.1 0 000-2.97z" fill="url(#paint1_linear_831_12249)"/></g></g><defs><linearGradient id="paint0_linear_831_12249" x1="87.6" y1="87.605" x2="32.398" y2="32.405" gradientUnits="userSpaceOnUse"><stop stop-color="#A88BFC"/><stop offset=".52" stop-color="#6645E8"/><stop offset="1" stop-color="#595FEF"/></linearGradient><linearGradient id="paint1_linear_831_12249" x1="39" y1="45" x2="81" y2="75" gradientUnits="userSpaceOnUse"><stop stop-color="#fff"/><stop offset=".515" stop-color="#fff"/><stop offset="1" stop-color="#BCE4ED"/></linearGradient><clipPath id="clip0_831_12249"><path fill="#fff" d="M0 0h120v120H0z"/></clipPath><clipPath id="clip1_831_12249"><path fill="#fff" transform="translate(39 39)" d="M0 0h42v42H0z"/></clipPath></defs></svg>