<svg width="48" height="48" fill="none" xmlns="http://www.w3.org/2000/svg"><g clip-path="url(#clip0_318_1789)" fill="#111"><path d="M0 24c0 13.234 10.766 24 24 24s24-10.766 24-24S37.234 0 24 0 0 10.766 0 24zm46.588 0c0 12.455-10.133 22.588-22.588 22.588C11.545 46.588 1.412 36.455 1.412 24 1.412 11.545 11.545 1.412 24 1.412c12.455 0 22.588 10.133 22.588 22.588z"/><path d="M24 17.92A6.086 6.086 0 0017.92 24 6.086 6.086 0 0024 30.08 6.086 6.086 0 0030.078 24a6.086 6.086 0 00-6.08-6.08zM28.666 24A4.673 4.673 0 0124 28.668 4.673 4.673 0 0119.332 24a4.673 4.673 0 014.667-4.668A4.673 4.673 0 0128.667 24zM28.36 5.124v.001a13.907 13.907 0 003.588 13.381c3 3 7.141 4.447 11.361 3.968h.001a.706.706 0 00.621-.781 19.933 19.933 0 00-4.772-10.834 19.988 19.988 0 00-9.934-6.233.706.706 0 00-.865.498zm9.732 6.66a18.527 18.527 0 014.34 9.348 12.375 12.375 0 01-9.486-3.624 12.491 12.491 0 01-3.387-11.315 18.586 18.586 0 018.533 5.591zm-9.732 31.09v.002a.707.707 0 00.865.498 19.99 19.99 0 009.934-6.233 19.934 19.934 0 004.772-10.833.706.706 0 00-.62-.782h-.001a13.788 13.788 0 00-11.362 3.968 13.905 13.905 0 00-3.588 13.38zm14.07-16.005a18.524 18.524 0 01-4.339 9.348 18.585 18.585 0 01-8.533 5.591 12.492 12.492 0 013.387-11.315 12.375 12.375 0 019.485-3.624z"/><path d="M9.718 9.91A19.942 19.942 0 003.938 24a19.943 19.943 0 005.78 14.09 19.938 19.938 0 0013.99 5.97.706.706 0 00.458-1.25C19.065 38.602 16.02 31.57 16.02 24c0-7.57 3.046-14.602 8.147-18.809a.706.706 0 00-.459-1.25A19.938 19.938 0 009.718 9.91zM14.608 24c0 7.213 2.64 13.98 7.146 18.517a18.521 18.521 0 01-11.03-5.419A18.54 18.54 0 015.348 24a18.54 18.54 0 015.374-13.098 18.522 18.522 0 0111.031-5.419C17.248 10.021 14.608 16.787 14.608 24z"/></g><defs><clipPath id="clip0_318_1789"><path fill="#fff" transform="rotate(-90 24 24)" d="M0 0h48v48H0z"/></clipPath></defs></svg>